<svg width="24" height="24" viewBox="0 0 24 24" fill="none" xmlns="http://www.w3.org/2000/svg">
<g clip-path="url(#clip0_19_136)">
<path d="M6.35334 13H4.15334C3.56986 13 3.01028 13.2318 2.5977 13.6444C2.18512 14.0569 1.95334 14.6165 1.95334 15.2V24H4.15334V19.6H6.35334V24H8.55334V15.2C8.55334 14.6165 8.32155 14.0569 7.90897 13.6444C7.49639 13.2318 6.93681 13 6.35334 13ZM6.35334 17.4H4.15334V15.2H6.35334M14.0533 13H9.65334V24H11.8533V19.6H14.0533C14.6368 19.6 15.1964 19.3682 15.609 18.9556C16.0216 18.5431 16.2533 17.9835 16.2533 17.4V15.2C16.2533 14.6165 16.0216 14.0569 15.609 13.6444C15.1964 13.2318 14.6368 13 14.0533 13ZM14.0533 17.4H11.8533V15.2H14.0533M20.6533 15.2V21.8H21.7533V24H17.3533V21.8H18.4533V15.2H17.3533V13H21.7533V15.2H20.6533Z" fill="#656565"/>
<path fill-rule="evenodd" clip-rule="evenodd" d="M14.0346 0.548403C13.9158 0.219607 13.6002 2.22406e-06 13.2474 2.22406e-06H10.7346C10.5626 -0.000394504 10.3947 0.0522941 10.2539 0.150881C10.113 0.249468 10.0059 0.389132 9.94738 0.550799L9.15538 2.76C8.74138 2.90761 8.41258 3.04441 8.16658 3.1752C7.96018 3.28441 7.73218 3.42 7.48018 3.588L5.20258 2.6472C5.05256 2.58515 4.8878 2.56777 4.72813 2.59714C4.56846 2.62651 4.42068 2.70142 4.30258 2.81281L2.61778 4.40401C2.49136 4.52266 2.40583 4.67836 2.37348 4.84871C2.34114 5.01905 2.36365 5.19527 2.43778 5.35201L3.41458 7.416C3.27671 7.69524 3.15099 7.9803 3.03778 8.2704C2.95738 8.4876 2.86618 8.7852 2.76178 9.168L0.508179 10.2504C0.372242 10.3151 0.256561 10.4156 0.173653 10.5413C0.090744 10.6669 0.0437584 10.8128 0.0377808 10.9632L0 12H1.67499L1.69258 11.5212L3.84058 10.4904C3.94949 10.4382 4.04567 10.3628 4.12236 10.2696C4.19907 10.1763 4.25443 10.0673 4.28458 9.95041C4.37533 9.57677 4.48344 9.20757 4.60858 8.844C4.69018 8.6256 4.85218 8.2704 5.09218 7.7892C5.1478 7.67821 5.17736 7.55599 5.17861 7.43184C5.17986 7.3077 5.15276 7.18489 5.09938 7.0728L4.20778 5.1888L5.06338 4.38001L7.25938 5.286C7.39058 5.34038 7.5334 5.36075 7.67457 5.34523C7.81575 5.32971 7.95073 5.2788 8.06698 5.19721C8.42218 4.94521 8.72098 4.75681 8.95498 4.63321C9.17578 4.5168 9.55378 4.36681 10.077 4.1928C10.1966 4.15317 10.3056 4.08689 10.3958 3.99895C10.486 3.91101 10.5551 3.80373 10.5978 3.6852L11.3238 1.65241H12.6586L13.4598 3.8748C13.5082 4.00746 13.5895 4.12563 13.6962 4.2182C13.8028 4.31078 13.9312 4.37471 14.0694 4.40401C14.4175 4.47473 14.761 4.56691 15.0978 4.68001C15.4927 4.83217 15.8804 5.00276 16.2594 5.19121C16.3784 5.24819 16.5091 5.27646 16.641 5.27376C16.773 5.27104 16.9024 5.23743 17.019 5.1756L18.8046 4.23L19.7214 5.17801L18.8514 7.218C18.8018 7.33423 18.7797 7.46038 18.787 7.58653C18.7943 7.71269 18.8307 7.83547 18.8934 7.94521C19.0743 8.25582 19.2424 8.57369 19.3974 8.898C19.5611 9.27048 19.7123 9.64829 19.851 10.0308C19.8904 10.1361 19.9509 10.2324 20.0286 10.3136C20.1064 10.3949 20.1999 10.4596 20.3034 10.5036L22.2474 11.3364L22.2055 12H23.8801L23.9526 10.8612C23.9742 10.5144 23.7738 10.1904 23.4498 10.0524L21.2934 9.1284C21.1446 8.73841 21.0198 8.43601 20.919 8.2164C20.8254 8.0148 20.703 7.77361 20.5494 7.49161L21.4746 5.3232C21.6042 5.0184 21.5394 4.66921 21.309 4.43041L19.5738 2.6364C19.4468 2.50574 19.2808 2.41979 19.1008 2.39144C18.9208 2.3631 18.7364 2.39389 18.5754 2.4792L16.6026 3.52321C16.2186 3.34441 15.9078 3.21361 15.6666 3.1272C15.4458 3.04801 15.1854 2.9724 14.8818 2.89681L14.0346 0.548403ZM10.8858 24H10.8419C10.8565 24.0004 10.8711 24.0004 10.8858 24ZM17.2746 12C17.2733 9.11151 14.9038 6.7692 11.9826 6.7692V6.7704C9.06019 6.7704 6.69189 9.11151 6.69058 12H8.36098C8.36229 10.0235 9.98299 8.42281 11.9826 8.42281C13.9822 8.42281 15.6017 10.0235 15.603 12H17.2746Z" fill="#656565"/>
</g>
<defs>
<clipPath id="clip0_19_136">
<rect width="24" height="24" fill="white"/>
</clipPath>
</defs>
</svg>
