<svg width="24" height="24" viewBox="0 0 24 24" fill="none" xmlns="http://www.w3.org/2000/svg">
<g clip-path="url(#clip0_12_70)">
<path fill-rule="evenodd" clip-rule="evenodd" d="M13.294 2.19017e-06C13.6468 2.19017e-06 13.9624 0.219602 14.0812 0.548402L14.9284 2.8968C15.232 2.9724 15.4924 3.048 15.7132 3.1272C15.9544 3.2136 16.2652 3.3444 16.6492 3.5232L18.622 2.4792C18.7831 2.39389 18.9674 2.3631 19.1474 2.39144C19.3274 2.41978 19.4934 2.50574 19.6204 2.6364L21.3556 4.4304C21.586 4.6692 21.6508 5.0184 21.5212 5.3232L20.596 7.4916L20.6299 7.55396L18.85 7.70873C18.8415 7.66858 18.8361 7.62774 18.8337 7.58653C18.8264 7.46037 18.8484 7.33423 18.898 7.218L19.768 5.178L18.8512 4.23L17.0656 5.1756C16.9491 5.23743 16.8196 5.27105 16.6877 5.27376C16.5558 5.27646 16.4251 5.24819 16.306 5.1912C15.927 5.00276 15.5394 4.83217 15.1444 4.68C14.8077 4.5669 14.4642 4.47473 14.116 4.404C13.9779 4.37471 13.8495 4.31077 13.7428 4.2182C13.6362 4.12563 13.5548 4.00746 13.5064 3.8748L12.7053 1.6524H11.3704L10.6444 3.6852C10.6018 3.80373 10.5327 3.91102 10.4425 3.99895C10.3522 4.08688 10.2432 4.15317 10.1236 4.1928C9.60044 4.3668 9.22244 4.5168 9.00164 4.6332C8.76764 4.7568 8.46884 4.9452 8.11364 5.1972C7.99739 5.27879 7.86241 5.32971 7.72123 5.34523C7.58006 5.36075 7.43725 5.34038 7.30604 5.286L5.11004 4.38L4.25444 5.1888L5.14604 7.0728C5.19942 7.18489 5.22652 7.30769 5.22527 7.43183C5.22402 7.55598 5.19446 7.67821 5.13884 7.7892C4.89884 8.2704 4.73684 8.6256 4.65524 8.844C4.53011 9.20757 4.42199 9.57677 4.33124 9.9504C4.30109 10.0673 4.24573 10.1763 4.16903 10.2696C4.09233 10.3628 3.99615 10.4382 3.88724 10.4904L1.73924 11.5212L1.69604 12.6972L3.64004 13.2876C3.89804 13.3656 4.10204 13.5636 4.18724 13.818C4.37924 14.394 4.53284 14.8188 4.64324 15.0852C4.78952 15.4233 4.95129 15.7544 5.12804 16.0776C5.18784 16.1888 5.22102 16.3123 5.22497 16.4385C5.22893 16.5647 5.20355 16.6901 5.15084 16.8048L4.24964 18.7704L5.10284 19.572L7.24124 18.6576C7.35643 18.6084 7.48113 18.5854 7.60629 18.5904C7.73145 18.5954 7.85393 18.6282 7.96484 18.6864C8.40284 18.9168 8.72924 19.0764 8.93564 19.164C9.14564 19.2516 9.54764 19.398 10.1308 19.5972C10.2466 19.6367 10.3522 19.7013 10.4402 19.7864C10.5281 19.8714 10.5962 19.9748 10.6396 20.0892L11.4892 22.3344L12.6004 22.3104L13.3168 20.3256C13.3578 20.2123 13.4229 20.1094 13.5077 20.0238C13.5924 19.9382 13.6948 19.8721 13.8076 19.83L15.052 19.3644C15.3664 19.248 15.748 19.0644 16.1932 18.8124C16.3165 18.7432 16.4551 18.706 16.5964 18.7043C16.7377 18.7027 16.8772 18.7365 17.002 18.8028L18.8944 19.8048L19.9588 18.8556L19.0276 16.8C18.9798 16.6945 18.955 16.58 18.9548 16.4641C18.9546 16.3874 18.9653 16.3112 18.9863 16.2378L20.7284 16.4035L20.704 16.4592L21.73 18.7272C21.8025 18.8866 21.8219 19.0649 21.7857 19.2361C21.7494 19.4074 21.6593 19.5625 21.5284 19.6788L19.5772 21.4212C19.4487 21.5355 19.2884 21.6077 19.1177 21.6283C18.947 21.6489 18.774 21.6168 18.622 21.5364L16.6108 20.4708C16.2962 20.6374 15.9716 20.7845 15.6388 20.9112L14.7604 21.24L13.9804 23.4C13.9226 23.5582 13.8184 23.6952 13.6813 23.7931C13.5443 23.8909 13.3808 23.9451 13.2124 23.9484L10.9324 24C10.7596 24.0045 10.5896 23.9554 10.4458 23.8593C10.3021 23.7633 10.1916 23.625 10.1296 23.4636L9.21044 21.0312C8.89682 20.924 8.58629 20.808 8.27924 20.6832C8.0281 20.5745 7.78075 20.4572 7.53764 20.3316L5.25764 21.306C5.10741 21.3701 4.94179 21.3891 4.78093 21.3608C4.62008 21.3325 4.47093 21.258 4.35164 21.1464L2.66444 19.5636C2.53883 19.4463 2.45328 19.2924 2.4199 19.1238C2.38652 18.9552 2.407 18.7803 2.47844 18.624L3.45884 16.488C3.32845 16.235 3.20757 15.9772 3.09644 15.7152C2.96672 15.3945 2.84667 15.0699 2.73644 14.742L0.588441 14.088C0.413842 14.0352 0.261554 13.9263 0.155229 13.7781C0.0489031 13.6299 -0.00550956 13.4507 0.000440963 13.2684L0.084441 10.9632C0.0904201 10.8128 0.137405 10.6669 0.220315 10.5413C0.303224 10.4156 0.418903 10.315 0.554841 10.2504L2.80844 9.168C2.91284 8.7852 3.00404 8.4876 3.08444 8.2704C3.19765 7.9803 3.32337 7.69523 3.46124 7.416L2.48444 5.352C2.41031 5.19526 2.3878 5.01905 2.42014 4.84871C2.45249 4.67836 2.53802 4.52266 2.66444 4.404L4.34924 2.8128C4.46735 2.70141 4.61512 2.62652 4.77479 2.59714C4.93446 2.56776 5.09922 2.58514 5.24924 2.6472L7.52684 3.588C7.77884 3.42 8.00684 3.2844 8.21324 3.1752C8.45924 3.0444 8.78804 2.9076 9.20204 2.76L9.99404 0.550802C10.0526 0.389124 10.1596 0.24946 10.3005 0.150879C10.4414 0.0522992 10.6093 -0.000391501 10.7812 2.19017e-06H13.294Z" fill="#656565"/>
<path d="M16 9.5H15C14.7348 9.5 14.4804 9.60536 14.2929 9.79289C14.1054 9.98043 14 10.2348 14 10.5V14.5H15V12.5H16V14.5H17V10.5C17 10.2348 16.8946 9.98043 16.7071 9.79289C16.5196 9.60536 16.2652 9.5 16 9.5ZM16 11.5H15V10.5H16M19.5 9.5H17.5V14.5H18.5V12.5H19.5C19.7652 12.5 20.0196 12.3946 20.2071 12.2071C20.3946 12.0196 20.5 11.7652 20.5 11.5V10.5C20.5 10.2348 20.3946 9.98043 20.2071 9.79289C20.0196 9.60536 19.7652 9.5 19.5 9.5ZM19.5 11.5H18.5V10.5H19.5M22.5 10.5V13.5H23V14.5H21V13.5H21.5V10.5H21V9.5H23V10.5H22.5Z" fill="#656565"/>
<path d="M17 7.52779C15.9385 6.57771 14.5367 6 13 6C9.68629 6 7 8.68629 7 12C7 15.3137 9.68629 18 13 18C14.5367 18 15.9385 17.4223 17 16.4722" stroke="#656565" stroke-width="2" stroke-linejoin="round"/>
</g>
<defs>
<clipPath id="clip0_12_70">
<rect width="24" height="24" fill="white"/>
</clipPath>
</defs>
</svg>
