<svg width="181" height="60" viewBox="0 0 181 60" fill="none" xmlns="http://www.w3.org/2000/svg">
<path d="M178.818 41.6771C178.747 36.0077 179.008 30.3335 178.686 24.6694C178.604 22.7053 177.897 20.8213 176.671 19.3004C175.445 17.7796 173.766 16.7043 171.887 16.236C167.79 15.1465 163.956 15.6741 160.482 18.8162C160.482 13.9862 160.468 9.3839 160.493 4.78183C160.499 3.67666 160.102 3.14325 158.956 3.15106C154.997 3.17884 151.038 3.17865 147.079 3.15049C145.954 3.14248 145.512 3.62661 145.514 4.75157C145.518 17.6347 145.522 30.5179 145.525 43.4011C145.526 44.7557 145.797 45.0236 147.154 45.0255C151.113 45.0297 155.072 45.0298 159.03 45.026C160.478 45.0244 160.719 44.7857 160.721 43.3418C160.724 39.2094 160.724 35.0771 160.721 30.9448C160.721 30.1285 160.778 29.3261 161.195 28.5989C161.522 28.0289 162.048 27.8997 162.641 27.976C163.182 28.0455 163.287 28.4826 163.407 28.9306C163.538 29.5236 163.591 30.1319 163.563 30.7391C163.56 34.9526 163.561 39.166 163.566 43.3792C163.567 44.7181 163.865 45.0227 165.183 45.0251C168.622 45.0314 172.061 45.01 175.5 45.0321C178.949 45.0544 178.863 45.2337 178.818 41.6771Z" fill="#069F76"/>
<path d="M23.9707 27.8041C23.1907 27.495 22.3934 27.233 21.5829 27.0194C20.465 26.7186 19.3216 26.5124 18.2089 26.1945C17.8348 26.0876 17.147 26.0537 17.238 25.5255C17.333 24.9739 17.9922 25.0526 18.4613 25.0576C18.739 25.0804 19.0142 25.1276 19.2839 25.1986C20.7642 25.4815 22.0379 26.2435 23.3209 26.9849C24.3695 27.5909 24.9792 27.385 25.4536 26.2441C26.4288 23.8982 27.3582 21.5318 28.3788 19.2065C28.7199 18.4293 28.5899 18.1146 27.8183 17.796C23.5064 16.016 19.0227 15.4436 14.422 15.8718C11.2193 16.1698 8.27202 17.2212 5.80548 19.4308C1.79027 23.0278 1.31848 31.0703 8.31651 33.6246C9.56281 34.0528 10.8301 34.4152 12.1133 34.7103C12.8278 34.8894 14.1569 34.7956 13.9697 35.6651C13.759 36.6441 12.4905 36.2585 11.6559 36.0958C9.74203 35.7233 8.08641 34.73 6.42722 33.7542C5.47566 33.1947 4.87134 33.3686 4.42769 34.3649C3.31254 36.8696 2.24269 39.395 1.11111 41.892C0.807148 42.5626 0.943543 42.8158 1.60396 43.1236C5.67288 45.0476 10.1162 46.0157 14.604 45.956C15.4033 45.956 16.209 46.0229 17.0008 45.9446C20.9206 45.5563 24.5333 44.4258 27.2079 41.2654C31.2854 36.4471 29.7616 30.1345 23.9707 27.8041Z" fill="#069F76"/>
<path d="M76.3353 26.4243C76.3017 24.1964 76.3336 21.9679 76.3235 19.7397C76.311 16.9492 76.8267 16.3975 73.3212 16.5868C72.5862 16.6265 72.3594 16.384 72.3755 15.6347C72.4218 13.4885 72.3712 11.3404 72.4007 9.19357C72.4147 8.17115 71.9969 7.72898 70.977 7.73442C66.898 7.75476 62.8192 7.75508 58.7406 7.73537C57.6853 7.73025 57.206 8.18046 57.2239 9.25982C57.2521 10.9609 57.2314 12.6628 57.2314 14.3644C57.2314 16.552 57.2314 16.552 55.0619 16.5762C53.7587 16.5907 53.3945 16.966 53.3919 18.3217C53.3878 20.5904 53.4111 22.8595 53.3857 25.1278C53.3551 27.8511 53.2417 28.1384 56.1948 27.9891C57.0508 27.9458 57.2572 28.2279 57.2503 29.0689C57.2112 33.8492 57.2467 38.63 57.22 43.4105C57.2137 44.5255 57.6248 45.0441 58.7606 45.0373C62.7996 45.0093 66.8383 45.01 70.8769 45.0393C72.0329 45.0478 72.4199 44.5095 72.4029 43.4057C72.3667 41.0567 72.3919 38.7063 72.3919 36.3567V30.4011C72.3919 28.0387 72.3921 28.0042 74.7702 28.0206C75.9057 28.0285 76.3525 27.5503 76.3353 26.4243Z" fill="#069F76"/>
<path d="M139.691 17.1894C136.04 15.9563 132.338 15.3919 128.493 16.0209C122.626 16.9807 117.59 21.7323 116.28 27.6066C114.912 33.7371 117.273 39.9509 122.496 43.3625C128.102 47.0242 133.965 46.6984 139.885 44.1048C140.494 43.8382 140.41 43.375 140.41 42.9021C140.41 39.7841 140.411 36.6661 140.413 33.5482C140.414 33.0644 140.465 32.6214 139.881 32.3403C139.322 32.0705 138.962 32.1863 138.486 32.5289C137.118 33.5139 135.618 34.109 133.885 33.808C132.303 33.5331 131.322 32.4642 131.292 30.9587C131.262 29.3889 132.23 28.2286 133.849 27.9536C135.532 27.6678 137.122 27.9245 138.502 29.0006C138.967 29.3636 139.343 29.446 139.896 29.1683C140.474 28.8782 140.414 28.4322 140.413 27.951C140.412 26.3718 140.412 24.7925 140.412 23.2132C140.412 21.553 140.394 19.8926 140.422 18.2328C140.431 17.6629 140.258 17.3807 139.691 17.1894Z" fill="#069F76"/>
<path d="M46.9669 16.5752C43.0499 16.5713 39.1328 16.5713 35.2156 16.5753C33.8433 16.5767 33.5084 16.9066 33.5069 18.2692C33.5056 22.4401 33.5049 26.6111 33.5049 30.7821C33.5011 34.953 33.5017 39.124 33.5069 43.295C33.5086 44.6772 33.8452 45.022 35.1949 45.0238C39.1519 45.0294 43.1089 45.0294 47.0661 45.0238C48.4022 45.0218 48.73 44.6787 48.7307 43.2742C48.735 34.9727 48.7348 26.6713 48.7302 18.37C48.7294 16.9406 48.3648 16.5766 46.9669 16.5752Z" fill="#FBAA0E"/>
<path d="M38.1763 13.743C40.0561 14.1775 42.0156 14.0998 43.8564 13.518C46.3692 12.7179 48.1041 11.0731 48.5499 8.37152C48.9909 5.69825 48.4541 3.27965 46.1649 1.55722C44.5208 0.320346 42.6184 -0.0412855 40.615 0.00759456C40.2156 0.00759456 39.8148 -0.0113005 39.4164 0.010517C35.3934 0.230848 32.6933 2.74525 32.3801 6.55508C32.0937 10.0401 34.3708 12.8939 38.1763 13.743Z" fill="#FBAA0E"/>
<path d="M107.525 18.9885C101.33 14.8222 94.6965 14.6886 88.0207 17.7051C84.608 19.2219 81.9166 22.0371 80.5241 25.5467C77.7287 32.3561 80.6274 40.174 87.3494 43.715C93.3616 46.8822 99.5708 46.8006 105.749 44.2168C108.845 42.9223 111.08 40.603 112.615 37.5605C113.294 36.2143 112.72 35.3188 111.247 35.2672C107.579 35.1391 103.916 34.8667 100.255 34.5962C99.5131 34.5414 99.077 34.6651 98.7697 35.4115C98.348 36.4349 97.4785 36.8075 96.4166 36.6433C95.3589 36.48 94.888 35.7331 94.6681 34.7438C94.5122 34.0433 94.6293 33.7291 95.4597 33.7438C98.2968 33.7938 101.135 33.763 103.973 33.7628C106.691 33.7628 109.409 33.7624 112.127 33.7617C113.589 33.7602 113.978 33.3747 114.01 31.9129C114.129 26.4298 112.006 22.002 107.525 18.9885ZM94.9756 26.2461C95.3443 25.1245 96.1299 24.7732 97.1647 24.8034C98.1007 24.8305 98.8543 25.1149 99.1235 26.2461H94.9756Z" fill="#069F76"/>
<path d="M59.9115 52.4403C59.7491 52.2347 59.5362 52.0762 59.2943 51.9809C59.0088 51.8557 58.7006 51.7931 58.3897 51.7971C58.025 51.7948 57.6652 51.8821 57.3409 52.0515C57.0166 52.2209 56.7374 52.4674 56.5271 52.77V51.9267H55.1382V57.6676H56.6336V55.0674C56.6139 54.6247 56.6514 54.1813 56.7453 53.7486C56.8204 53.5147 56.9702 53.313 57.171 53.1756C57.3757 53.0317 57.6193 52.9561 57.8681 52.9593C58.0515 52.9538 58.232 53.0067 58.3843 53.1106C58.5319 53.2145 58.6421 53.3644 58.6983 53.5376C58.783 53.9315 58.8152 54.3351 58.794 54.7377V57.6676H60.2892V54.0999C60.2984 53.7572 60.2699 53.4146 60.2042 53.0783C60.1537 52.8464 60.0538 52.6287 59.9115 52.4403Z" fill="#069F76"/>
<path d="M172.313 52.7324C172.124 52.4436 171.866 52.207 171.564 52.0438C171.263 51.8807 170.926 51.796 170.584 51.7973C170.263 51.7912 169.944 51.8562 169.65 51.9878C169.356 52.1194 169.093 52.3145 168.881 52.5594C168.427 53.0675 168.2 53.8027 168.2 54.765C168.176 55.4455 168.358 56.1172 168.721 56.6892C168.914 56.9961 169.181 57.2475 169.497 57.4189C169.813 57.5903 170.167 57.676 170.525 57.6678C170.861 57.6676 171.192 57.5825 171.487 57.4202C171.783 57.2579 172.034 57.0234 172.218 56.7379V57.5757C172.23 57.8105 172.206 58.0457 172.148 58.2732C172.095 58.4319 171.99 58.5672 171.85 58.6569C171.578 58.7931 171.275 58.8546 170.972 58.8353C170.738 58.8539 170.503 58.7971 170.302 58.6731C170.243 58.6206 170.196 58.5567 170.162 58.4852C170.128 58.4137 170.109 58.336 170.105 58.2568L168.397 58.046C168.393 58.1182 168.391 58.1795 168.391 58.2299C168.387 58.4738 168.44 58.7152 168.544 58.9349C168.649 59.1545 168.802 59.3463 168.993 59.4947C169.394 59.8299 170.073 59.9975 171.031 59.9976C171.455 60.0088 171.879 59.9541 172.287 59.8353C172.583 59.7486 172.855 59.5953 173.085 59.3867C173.301 59.1665 173.46 58.8953 173.548 58.5974C173.677 58.1023 173.733 57.5904 173.713 57.0786V51.9269H172.313V52.7324ZM171.866 56.0081C171.753 56.1453 171.611 56.2553 171.451 56.3301C171.291 56.4049 171.117 56.4426 170.94 56.4406C170.775 56.4417 170.611 56.4043 170.461 56.3312C170.312 56.2582 170.181 56.1514 170.078 56.0191C169.848 55.7344 169.732 55.2875 169.733 54.6784C169.733 54.0982 169.848 53.6675 170.078 53.3865C170.184 53.2507 170.319 53.1415 170.474 53.0675C170.628 52.9934 170.797 52.9565 170.967 52.9595C171.142 52.9561 171.315 52.9933 171.474 53.0682C171.632 53.1432 171.772 53.2539 171.882 53.392C172.124 53.6801 172.244 54.1216 172.244 54.7162C172.244 55.2856 172.118 55.7162 171.866 56.0082L171.866 56.0081Z" fill="#069F76"/>
<path d="M16.7071 52.0555C16.3855 51.8737 16.0214 51.784 15.6535 51.796C15.333 51.7945 15.0171 51.8724 14.7329 52.0229C14.4221 52.1942 14.1487 52.4277 13.9294 52.7094C13.7783 52.4232 13.5516 52.1855 13.2749 52.0229C12.9855 51.8658 12.661 51.7876 12.333 51.796C11.9898 51.7994 11.6522 51.8838 11.3465 52.0423C11.0409 52.2008 10.7756 52.4291 10.5716 52.7094V51.9256H9.19336V57.6665H10.6887V54.8772C10.6715 54.4789 10.7109 54.0801 10.8057 53.6933C10.8756 53.4714 11.0159 53.2794 11.2048 53.1473C11.3886 53.0214 11.6058 52.9555 11.8274 52.9582C11.9867 52.9493 12.1448 52.9908 12.2798 53.0772C12.4003 53.1664 12.4883 53.2937 12.5299 53.4392C12.6006 53.7948 12.6274 54.158 12.6097 54.5204V57.6665H14.105V54.9095C14.0885 54.511 14.1297 54.1122 14.2274 53.7259C14.2938 53.495 14.4343 53.2933 14.6265 53.1528C14.7986 53.0271 15.0051 52.959 15.2171 52.9582C15.3423 52.95 15.4674 52.9757 15.5796 53.0326C15.6918 53.0896 15.7871 53.1758 15.8557 53.2825C15.9586 53.4482 16.01 53.8158 16.01 54.3852V57.6665H17.5053V53.9961C17.5265 53.5934 17.4742 53.1903 17.351 52.8069C17.2231 52.4916 16.9969 52.2277 16.7071 52.0555Z" fill="#069F76"/>
<path d="M67.2279 52.4403C67.0655 52.2347 66.8526 52.0762 66.6107 51.9809C66.3252 51.8558 66.017 51.7931 65.7061 51.797C65.3414 51.7948 64.9816 51.8821 64.6573 52.0515C64.333 52.2209 64.0538 52.4674 63.8435 52.77V51.9267H62.4546V57.6676H63.95V55.0674C63.9303 54.6247 63.9679 54.1813 64.0617 53.7486C64.1367 53.5147 64.2866 53.313 64.4874 53.1755C64.692 53.0316 64.9357 52.9561 65.1846 52.9593C65.3679 52.9538 65.5484 53.0067 65.7007 53.1106C65.8483 53.2145 65.9585 53.3644 66.0147 53.5376C66.0994 53.9315 66.1316 54.3351 66.1105 54.7377V57.6676H67.6057V54.0999C67.6149 53.7572 67.5863 53.4145 67.5204 53.0783C67.4701 52.8464 67.3702 52.6286 67.2279 52.4403Z" fill="#069F76"/>
<path d="M6.16069 53.2934C5.61952 53.0339 5.0496 52.8415 4.46319 52.7204C3.69691 52.5365 3.21443 52.3599 3.01577 52.1906C2.94313 52.1339 2.88425 52.0611 2.84365 51.9776C2.80306 51.8942 2.78184 51.8025 2.78162 51.7094C2.77941 51.6127 2.80115 51.517 2.84486 51.4311C2.88856 51.3452 2.95283 51.2718 3.03174 51.2177C3.35129 51.0093 3.72754 50.909 4.10664 50.9311C4.45886 50.9045 4.80958 50.9997 5.10175 51.2013C5.35095 51.4267 5.50685 51.7397 5.53807 52.0771L7.11321 52.0067C7.11388 51.6757 7.04436 51.3484 6.90938 51.0472C6.7744 50.7459 6.57713 50.4776 6.33098 50.2607C5.83785 49.8248 5.10172 49.6068 4.1226 49.6068C3.59697 49.593 3.07398 49.6868 2.58473 49.8825C2.1877 50.0452 1.84828 50.326 1.61092 50.6879C1.39181 51.0226 1.27515 51.4157 1.27568 51.8176C1.27269 52.1207 1.33552 52.4208 1.45969 52.6964C1.58386 52.972 1.76631 53.2165 1.99406 53.4123C2.33464 53.7221 2.92708 53.9834 3.7714 54.1961C4.4277 54.3619 4.84809 54.4772 5.03256 54.542C5.24746 54.6044 5.44214 54.7238 5.59662 54.8879C5.70755 55.0203 5.76631 55.1898 5.76159 55.3636C5.75892 55.5132 5.72251 55.6602 5.65517 55.7933C5.58783 55.9264 5.49134 56.042 5.37313 56.1313C5.04052 56.3713 4.63592 56.4859 4.22903 56.4555C3.81646 56.4776 3.40999 56.347 3.08495 56.088C2.77333 55.7813 2.57589 55.3745 2.5262 54.9367L0.993652 55.0879C1.09653 55.9745 1.41227 56.6502 1.94086 57.1151C2.46943 57.5762 3.22684 57.8068 4.21307 57.8069C4.79186 57.8244 5.36845 57.7271 5.91058 57.5205C6.34395 57.3433 6.71223 57.0335 6.96422 56.6339C7.19751 56.2558 7.32608 55.8207 7.33638 55.3745C7.34669 54.9284 7.23834 54.4877 7.02276 54.0989C6.81464 53.7542 6.51613 53.4753 6.16069 53.2934Z" fill="#069F76"/>
<path d="M152.781 51.7967C152.256 51.7896 151.738 51.9179 151.275 52.1697C150.83 52.4161 150.469 52.7928 150.237 53.2508C149.998 53.7009 149.872 54.2041 149.87 54.7157C149.853 55.2983 149.979 55.8762 150.237 56.3967C150.477 56.8499 150.852 57.2149 151.307 57.4401C151.768 57.6753 152.276 57.7975 152.792 57.7969C153.178 57.8084 153.562 57.7385 153.92 57.5915C154.278 57.4445 154.603 57.2237 154.872 56.9429C155.147 56.6578 155.362 56.3193 155.505 55.9478C155.647 55.5762 155.715 55.1792 155.703 54.7806C155.715 54.3869 155.649 53.9947 155.508 53.6277C155.367 53.2607 155.155 52.9265 154.883 52.6454C154.609 52.364 154.281 52.1433 153.92 51.9973C153.558 51.8512 153.17 51.7829 152.781 51.7967ZM153.765 56.1049C153.646 56.2498 153.496 56.3657 153.326 56.4443C153.157 56.5228 152.973 56.562 152.786 56.559C152.599 56.5617 152.414 56.5224 152.244 56.4439C152.074 56.3654 151.923 56.2496 151.802 56.1049C151.542 55.7197 151.403 55.2637 151.403 54.7968C151.403 54.3298 151.542 53.8738 151.802 53.4887C151.923 53.3439 152.074 53.2282 152.244 53.1496C152.414 53.0711 152.599 53.0318 152.786 53.0346C152.973 53.0315 153.157 53.0707 153.326 53.1492C153.496 53.2278 153.646 53.3438 153.765 53.4887C154.053 53.8556 154.195 54.3182 154.165 54.786C154.197 55.2607 154.055 55.7307 153.765 56.1049Z" fill="#069F76"/>
<path d="M179.406 51.9258L178.087 56.0018L176.735 51.9258H175.144L177.294 57.6829C177.222 57.9701 177.091 58.2388 176.911 58.4719C176.815 58.5811 176.695 58.6662 176.561 58.7206C176.427 58.775 176.283 58.7972 176.139 58.7854C175.926 58.7828 175.714 58.7593 175.506 58.7153L175.639 59.9044C175.917 59.9659 176.201 59.9968 176.485 59.9965C176.742 59.9999 176.997 59.9689 177.246 59.9044C177.45 59.854 177.643 59.7661 177.815 59.6451C177.978 59.5306 178.117 59.3856 178.225 59.2179C178.378 58.9768 178.505 58.7194 178.603 58.4505L178.959 57.4505L180.955 51.9258H179.406Z" fill="#069F76"/>
<path d="M24.2255 55.7785L24.2416 54.0054C24.2416 53.346 24.1742 52.8938 24.0393 52.6488C23.8812 52.3754 23.6405 52.1612 23.3529 52.0379C22.8792 51.849 22.371 51.766 21.8629 51.7946C21.1286 51.7946 20.5751 51.9279 20.2026 52.1947C19.8055 52.4985 19.5267 52.9349 19.4151 53.4271L20.772 53.6757C20.8324 53.4563 20.959 53.2616 21.1339 53.119C21.3198 53.0005 21.5374 52.9438 21.7565 52.9568C22.1502 52.9568 22.4181 53.0199 22.56 53.1459C22.6381 53.2274 22.6976 53.3253 22.7344 53.4327C22.7711 53.5401 22.7843 53.6544 22.7729 53.7675V53.919C22.3009 54.0884 21.8146 54.2132 21.3201 54.292C20.9097 54.3597 20.5092 54.4795 20.1281 54.6486C19.863 54.7746 19.6407 54.9779 19.4896 55.2326C19.3016 55.561 19.2263 55.9435 19.2754 56.3202C19.3245 56.6968 19.4953 57.0462 19.761 57.3135C20.1411 57.6502 20.6356 57.8229 21.1392 57.7948C21.459 57.7967 21.7759 57.7324 22.0704 57.6056C22.3758 57.4695 22.6537 57.2771 22.89 57.0381C22.9005 57.0667 22.9184 57.1262 22.9431 57.2163C23 57.4146 23.0478 57.5642 23.0867 57.6651H24.5662C24.4455 57.4213 24.3543 57.1636 24.2948 56.8975C24.2397 56.5272 24.2165 56.1528 24.2255 55.7785ZM22.7729 55.2109C22.7836 55.4593 22.764 55.708 22.7144 55.9515C22.6541 56.1548 22.5285 56.3317 22.3577 56.4541C22.136 56.6264 21.8653 56.7212 21.5862 56.7246C21.4766 56.7284 21.3673 56.7098 21.2649 56.6698C21.1625 56.6298 21.0691 56.5693 20.9902 56.4919C20.9156 56.4216 20.8563 56.3363 20.816 56.2414C20.7757 56.1465 20.7553 56.0441 20.756 55.9407C20.7563 55.8337 20.7833 55.7284 20.8345 55.6349C20.8857 55.5413 20.9594 55.4624 21.0487 55.4055C21.3048 55.2744 21.5795 55.185 21.8629 55.1405C22.1699 55.0786 22.4736 55.0011 22.7729 54.9081V55.2109Z" fill="#069F76"/>
<path d="M33.2604 56.5364C33.1695 56.539 33.0801 56.5125 33.0048 56.4607C32.9406 56.4149 32.8937 56.3482 32.8718 56.2716C32.8457 55.9986 32.8369 55.7242 32.8453 55.45V53.1364H33.8672V51.9254H32.8453V49.8984L31.3442 50.785V51.9254H30.6577V53.1364H31.3442V55.6391C31.3346 55.9966 31.3507 56.3543 31.3922 56.7093C31.4178 56.9206 31.4886 57.1236 31.5997 57.304C31.7246 57.4649 31.8902 57.5882 32.0787 57.6608C32.3108 57.7539 32.5586 57.7998 32.8081 57.7959C33.213 57.8028 33.615 57.7256 33.9895 57.569L33.8618 56.3906C33.6703 56.4716 33.4673 56.5209 33.2604 56.5364Z" fill="#069F76"/>
<path d="M28.3394 51.9809C28.0777 52.1882 27.8603 52.4475 27.7007 52.743V51.9267H26.3115V57.6676H27.8072V55.8944C27.7816 55.2504 27.8226 54.6054 27.9297 53.97C27.978 53.728 28.0989 53.507 28.2757 53.3375C28.4271 53.2167 28.6154 53.1536 28.8078 53.1593C29.0607 53.1717 29.3047 53.258 29.5105 53.4079L29.9735 52.0834C29.6773 51.8982 29.3367 51.7991 28.9889 51.797C28.7595 51.7936 28.534 51.8574 28.3394 51.9809Z" fill="#069F76"/>
<path d="M44.9284 55.8024C45.0552 55.6277 45.1624 55.4391 45.2478 55.2401C45.3876 54.8915 45.505 54.534 45.599 54.1699L44.2474 53.8563C44.1763 54.1705 44.0654 54.4739 43.9174 54.7591L42.8318 53.305C43.2711 53.0581 43.6581 52.7256 43.9706 52.3266C44.1527 52.0577 44.2509 51.7394 44.2525 51.4131C44.2555 51.1703 44.206 50.9298 44.1077 50.7084C44.0093 50.4871 43.8645 50.2903 43.6833 50.1319C43.2408 49.7602 42.676 49.5728 42.1028 49.6076C41.404 49.6076 40.8648 49.7752 40.4852 50.1103C40.3074 50.257 40.1644 50.4426 40.0667 50.6531C39.9691 50.8636 39.9193 51.0938 39.9211 51.3265C39.9277 51.614 39.9967 51.8964 40.1232 52.1536C40.2847 52.4828 40.4868 52.7897 40.7245 53.0671C40.2036 53.3087 39.746 53.6717 39.389 54.1266C39.0945 54.5193 38.9372 55.0005 38.942 55.4941C38.9385 56.0436 39.1422 56.5736 39.5113 56.9754C40.0009 57.5303 40.7318 57.8077 41.7038 57.8077C42.1347 57.8176 42.5638 57.748 42.9702 57.6024C43.3416 57.4551 43.6826 57.2387 43.976 56.9645C44.3551 57.3298 44.7855 57.6359 45.2532 57.8727L46.1578 56.6997C45.9546 56.5889 45.759 56.4643 45.5723 56.3267C45.3469 56.166 45.1318 55.9909 44.9284 55.8024ZM41.5813 50.8617C41.7475 50.7386 41.9487 50.6741 42.1543 50.678C42.3599 50.6819 42.5586 50.754 42.7201 50.8834C42.7895 50.9454 42.845 51.0219 42.8827 51.1077C42.9203 51.1935 42.9393 51.2866 42.9383 51.3805C42.9383 51.6112 42.7893 51.8437 42.4913 52.078L42.0869 52.3915L41.7197 51.959C41.5328 51.7783 41.4126 51.5379 41.379 51.278C41.38 51.1977 41.3986 51.1186 41.4336 51.0465C41.4687 50.9745 41.5191 50.9113 41.5813 50.8617H41.5813ZM42.3157 56.4133C42.1021 56.5062 41.8722 56.554 41.6399 56.5536C41.3271 56.5693 41.021 56.4585 40.7884 56.2456C40.6842 56.1406 40.6026 56.0148 40.5485 55.8762C40.4945 55.7376 40.4692 55.5891 40.4744 55.4401C40.4794 55.1653 40.5687 54.8988 40.7299 54.678C40.9308 54.4034 41.196 54.1842 41.5015 54.0402L43.0234 55.9482C42.8106 56.1368 42.5722 56.2934 42.3157 56.4133H42.3157Z" fill="#069F76"/>
<path d="M53.0002 49.7422H51.4248V57.6668H53.0002V49.7422Z" fill="#069F76"/>
<path d="M159.028 49.7422H157.532V57.6668H159.028V49.7422Z" fill="#069F76"/>
<path d="M126.289 52.6446C126.04 52.3614 125.733 52.1382 125.388 51.9913C125.044 51.8445 124.672 51.7777 124.299 51.7959C123.95 51.7867 123.603 51.8544 123.282 51.9944C122.962 52.1344 122.675 52.3433 122.441 52.6068C121.952 53.1438 121.707 53.8879 121.707 54.8393C121.68 55.5425 121.876 56.236 122.266 56.8177C122.738 57.4699 123.465 57.796 124.448 57.7961C124.995 57.8171 125.536 57.6661 125.996 57.3636C126.426 57.0509 126.745 56.6054 126.906 56.0934L125.416 55.8393C125.362 56.0813 125.236 56.3003 125.054 56.4664C124.886 56.5991 124.677 56.6679 124.464 56.6609C124.302 56.6646 124.142 56.6333 123.993 56.569C123.844 56.5046 123.711 56.4088 123.602 56.2879C123.356 55.9946 123.227 55.6188 123.24 55.2339H126.986C127.007 54.0699 126.775 53.2068 126.289 52.6446ZM123.266 54.3041C123.244 53.9475 123.356 53.5956 123.58 53.3202C123.681 53.2032 123.805 53.11 123.945 53.0474C124.085 52.9849 124.236 52.9544 124.389 52.9582C124.535 52.9562 124.68 52.986 124.814 53.0456C124.948 53.1053 125.068 53.1934 125.166 53.304C125.397 53.5828 125.517 53.9398 125.501 54.3041H123.266Z" fill="#069F76"/>
<path d="M115.088 51.0826H117.403V57.6668H118.978V51.0826H121.288V49.7422H115.088V51.0826Z" fill="#069F76"/>
<path d="M132.013 56.3141C131.819 56.4809 131.57 56.5677 131.316 56.5572C131.143 56.5636 130.97 56.5288 130.812 56.4556C130.654 56.3825 130.515 56.2729 130.406 56.1357C130.183 55.8545 130.071 55.3734 130.071 54.6922C130.071 54.0796 130.181 53.6436 130.401 53.3842C130.511 53.2543 130.649 53.1514 130.804 53.0831C130.958 53.0147 131.126 52.9828 131.295 52.9895C131.542 52.978 131.784 53.0589 131.976 53.2167C132.166 53.3926 132.287 53.6326 132.317 53.8923L133.791 53.622C133.66 53.0766 133.35 52.5925 132.913 52.249C132.429 51.9227 131.854 51.7635 131.274 51.7949C130.904 51.7764 130.534 51.8376 130.19 51.9746C129.845 52.1116 129.532 52.3212 129.273 52.5896C128.78 53.1157 128.533 53.8526 128.533 54.8005C128.533 55.7373 128.778 56.4706 129.268 57.0004C129.523 57.2674 129.832 57.4763 130.173 57.6133C130.515 57.7503 130.881 57.8122 131.247 57.7951C131.869 57.8281 132.483 57.643 132.987 57.2708C133.448 56.8729 133.759 56.3244 133.865 55.7194L132.397 55.4653C132.361 55.7825 132.227 56.0799 132.013 56.3141Z" fill="#069F76"/>
<path d="M147.662 52.4403C147.5 52.2347 147.287 52.0762 147.045 51.9809C146.759 51.8558 146.451 51.7931 146.14 51.797C145.775 51.7948 145.416 51.8821 145.091 52.0515C144.767 52.2209 144.488 52.4674 144.278 52.77V51.9267H142.889V57.6676H144.384V55.0674C144.364 54.6247 144.402 54.1813 144.496 53.7486C144.571 53.5147 144.721 53.313 144.921 53.1756C145.126 53.0316 145.37 52.9561 145.619 52.9593C145.802 52.9538 145.982 53.0067 146.135 53.1106C146.282 53.2144 146.393 53.3644 146.449 53.5376C146.533 53.9314 146.566 54.3351 146.545 54.7377V57.6676H148.04V54.0999C148.049 53.7572 148.02 53.4145 147.954 53.0783C147.904 52.8464 147.804 52.6286 147.662 52.4403Z" fill="#069F76"/>
<path d="M109.374 52.6446C109.125 52.3614 108.817 52.1382 108.473 51.9913C108.129 51.8445 107.756 51.7777 107.383 51.7959C107.035 51.7867 106.688 51.8544 106.367 51.9944C106.047 52.1344 105.76 52.3433 105.526 52.6068C105.037 53.1438 104.792 53.888 104.792 54.8393C104.765 55.5425 104.961 56.236 105.351 56.8177C105.823 57.4699 106.55 57.796 107.533 57.7961C108.08 57.8172 108.621 57.6661 109.081 57.3636C109.511 57.051 109.83 56.6054 109.991 56.0934L108.501 55.8393C108.447 56.0812 108.32 56.3003 108.139 56.4664C107.97 56.5991 107.762 56.6679 107.548 56.6609C107.387 56.6646 107.226 56.6333 107.078 56.5689C106.929 56.5046 106.796 56.4088 106.686 56.2879C106.441 55.9945 106.312 55.6187 106.324 55.2339H110.071C110.092 54.0699 109.86 53.2068 109.374 52.6446ZM106.351 54.3041C106.328 53.9475 106.441 53.5955 106.665 53.3202C106.765 53.2032 106.89 53.11 107.03 53.0474C107.17 52.9848 107.321 52.9544 107.474 52.9582C107.62 52.9562 107.765 52.986 107.899 53.0456C108.033 53.1053 108.153 53.1934 108.251 53.304C108.482 53.5828 108.602 53.9398 108.586 54.3041H106.351Z" fill="#069F76"/>
<path d="M140.357 52.4882C140.197 52.2689 139.982 52.0971 139.734 51.9908C139.281 51.787 138.774 51.7417 138.292 51.862C137.811 51.9823 137.382 52.2615 137.073 52.6557V49.7422H135.578V57.6668H137.073V54.7909C137.058 54.422 137.103 54.053 137.207 53.699C137.284 53.4692 137.436 53.2729 137.637 53.1422C137.838 53.0183 138.068 52.9546 138.303 52.9585C138.492 52.951 138.68 53.0018 138.84 53.1043C138.982 53.1931 139.089 53.3287 139.143 53.4883C139.22 53.8649 139.249 54.25 139.229 54.6341V57.6668H140.724V54.299C140.734 53.9171 140.708 53.5351 140.644 53.1586C140.596 52.917 140.498 52.6885 140.357 52.4882Z" fill="#069F76"/>
<path d="M88.3889 55.7785L88.4048 54.0054C88.4048 53.346 88.3373 52.8938 88.2025 52.6488C88.0444 52.3754 87.8037 52.1611 87.5161 52.0379C87.0424 51.849 86.5342 51.766 86.0261 51.7946C85.2917 51.7946 84.7383 51.9279 84.3658 52.1947C83.9688 52.4986 83.6899 52.935 83.5783 53.4271L84.9353 53.6757C84.9957 53.4563 85.1222 53.2616 85.2971 53.119C85.483 53.0005 85.7006 52.9438 85.9197 52.9568C86.3134 52.9568 86.5812 53.0199 86.7232 53.1459C86.8012 53.2274 86.8607 53.3253 86.8975 53.4327C86.9343 53.5401 86.9475 53.6544 86.9361 53.7675V53.919C86.4641 54.0884 85.9778 54.2132 85.4833 54.292C85.0728 54.3597 84.6724 54.4796 84.2913 54.6486C84.0262 54.7747 83.8039 54.9779 83.6527 55.2326C83.498 55.4933 83.4187 55.7931 83.424 56.0975C83.4177 56.3246 83.4591 56.5505 83.5453 56.7602C83.6316 56.9698 83.7607 57.1584 83.9241 57.3135C84.3043 57.6502 84.7989 57.8229 85.3025 57.7948C85.6223 57.7967 85.9392 57.7324 86.2338 57.6056C86.539 57.4694 86.8168 57.277 87.0531 57.0381C87.0639 57.0667 87.0816 57.1261 87.1063 57.2163C87.1631 57.4146 87.211 57.5642 87.2501 57.6651H88.7293C88.6086 57.4213 88.5175 57.1636 88.4579 56.8975C88.403 56.5272 88.3799 56.1528 88.3889 55.7785ZM86.9361 55.2109C86.9468 55.4593 86.9271 55.708 86.8775 55.9515C86.8172 56.1547 86.6918 56.3316 86.5211 56.4541C86.2993 56.6263 86.0287 56.7212 85.7495 56.7246C85.6399 56.7284 85.5306 56.7098 85.4282 56.6698C85.3258 56.6298 85.2324 56.5693 85.1535 56.4919C85.0789 56.4216 85.0196 56.3363 84.9793 56.2414C84.939 56.1465 84.9186 56.0441 84.9194 55.9407C84.9197 55.8337 84.9466 55.7285 84.9978 55.6349C85.0489 55.5413 85.1226 55.4624 85.2119 55.4055C85.4679 55.2745 85.7427 55.1851 86.0261 55.1405C86.333 55.0787 86.6367 55.0011 86.936 54.9081L86.9361 55.2109Z" fill="#069F76"/>
<path d="M92.5228 56.5364C92.4319 56.539 92.3425 56.5126 92.2673 56.4607C92.2031 56.4149 92.1562 56.3482 92.1342 56.2716C92.1079 55.9986 92.099 55.7242 92.1075 55.45V53.1364H93.1294V51.9254H92.1075V49.8984L90.6066 50.785V51.9254H89.9199V53.1364H90.6066V55.6391C90.597 55.9966 90.613 56.3542 90.6544 56.7093C90.6801 56.9206 90.751 57.1236 90.8622 57.304C90.987 57.4649 91.1526 57.5882 91.3411 57.6608C91.5731 57.7539 91.8209 57.7998 92.0703 57.7959C92.4753 57.8028 92.8773 57.7256 93.2519 57.569L93.124 56.3906C92.9326 56.4716 92.7296 56.5208 92.5228 56.5364Z" fill="#069F76"/>
<path d="M72.3459 51.7967C71.8209 51.7896 71.3028 51.9179 70.8399 52.1696C70.3951 52.4161 70.0336 52.7928 69.8023 53.2508C69.5631 53.7009 69.4369 54.2041 69.4352 54.7157C69.4179 55.2983 69.5441 55.8761 69.8023 56.3967C70.0424 56.8499 70.4166 57.2149 70.872 57.4401C71.3326 57.6753 71.8411 57.7975 72.3567 57.7969C72.7428 57.8084 73.127 57.7385 73.4851 57.5915C73.8433 57.4445 74.1675 57.2237 74.4373 56.9429C74.7118 56.6578 74.9268 56.3193 75.0695 55.9478C75.2121 55.5762 75.2795 55.1792 75.2674 54.7806C75.28 54.3869 75.2139 53.9947 75.073 53.6277C74.9322 53.2607 74.7195 52.9265 74.4478 52.6454C74.1742 52.364 73.8462 52.1434 73.4844 51.9973C73.1226 51.8512 72.735 51.7829 72.3459 51.7967ZM73.3304 56.1049C73.2107 56.2498 73.0607 56.3657 72.8913 56.4443C72.722 56.5228 72.5375 56.562 72.3513 56.559C72.1644 56.5617 71.9792 56.5224 71.809 56.4439C71.6388 56.3654 71.4878 56.2496 71.3668 56.1049C71.1069 55.7197 70.9678 55.2637 70.9678 54.7968C70.9678 54.3298 71.1069 53.8738 71.3668 53.4887C71.4878 53.3439 71.6388 53.2282 71.809 53.1496C71.9792 53.0711 72.1644 53.0318 72.3513 53.0346C72.5375 53.0315 72.722 53.0707 72.8913 53.1492C73.0607 53.2278 73.2107 53.3438 73.3304 53.4887C73.6178 53.8556 73.7602 54.3182 73.7296 54.786C73.7622 55.2607 73.6199 55.7308 73.3304 56.1049H73.3304Z" fill="#069F76"/>
<path d="M79.6302 54.8557C79.5733 55.0179 79.5201 55.1801 79.4705 55.3422C79.4492 55.4215 79.3977 55.5855 79.3161 55.8341L79.0075 54.8557L77.9432 51.9258H76.3735L78.6511 57.6667H79.9973L82.2428 51.9258H80.705L79.6302 54.8557Z" fill="#069F76"/>
<path d="M163.784 51.7967C163.259 51.7896 162.741 51.9179 162.278 52.1696C161.834 52.416 161.472 52.7928 161.241 53.2508C161.002 53.7009 160.875 54.2041 160.874 54.7156C160.856 55.2983 160.983 55.8761 161.241 56.3967C161.481 56.8498 161.855 57.2148 162.31 57.44C162.771 57.6752 163.279 57.7974 163.795 57.7968C164.181 57.8084 164.565 57.7385 164.923 57.5915C165.282 57.4445 165.606 57.2236 165.876 56.9429C166.15 56.6578 166.365 56.3193 166.508 55.9477C166.651 55.5762 166.718 55.1792 166.706 54.7806C166.718 54.3869 166.652 53.9947 166.511 53.6277C166.371 53.2607 166.158 52.9265 165.886 52.6454C165.613 52.364 165.285 52.1434 164.923 51.9973C164.561 51.8512 164.173 51.7829 163.784 51.7967ZM164.769 56.1048C164.649 56.2497 164.499 56.3657 164.33 56.4442C164.16 56.5228 163.976 56.562 163.79 56.5589C163.603 56.5616 163.418 56.5223 163.247 56.4438C163.077 56.3653 162.926 56.2496 162.805 56.1048C162.545 55.7198 162.406 55.2637 162.406 54.7967C162.406 54.3298 162.545 53.8737 162.805 53.4887C162.926 53.3439 163.077 53.2281 163.247 53.1496C163.418 53.0711 163.603 53.0318 163.79 53.0345C163.976 53.0315 164.16 53.0707 164.33 53.1493C164.499 53.2278 164.649 53.3438 164.769 53.4887C165.056 53.8556 165.198 54.3182 165.168 54.786C165.2 55.2607 165.058 55.7307 164.769 56.1048Z" fill="#069F76"/>
<path d="M101.041 54.8557C100.984 55.0179 100.931 55.1801 100.882 55.3422C100.86 55.4215 100.809 55.5855 100.727 55.8341L100.419 54.8557L99.3543 51.9258H97.7847L100.062 57.6667H101.408L103.654 51.9258H102.116L101.041 54.8557Z" fill="#069F76"/>
<path d="M96.3175 51.9258H94.8218V57.6667H96.3175V51.9258Z" fill="#069F76"/>
<path d="M95.4601 49.7441H93.9644V51.1495H95.4601V49.7441Z" fill="#069F76"/>
</svg>
