<svg width="24" height="24" viewBox="0 0 24 24" fill="none" xmlns="http://www.w3.org/2000/svg">
<path d="M12 5V10.3333L14 13" stroke="#3F50B5" stroke-width="1.5"/>
<g clip-path="url(#clip0_10_61)">
<path d="M17 13.4417C17.6767 13.4417 18.225 13.99 18.225 14.6667C18.225 15.3433 17.6767 15.8917 17 15.8917C16.3233 15.8917 15.775 15.3433 15.775 14.6667C15.775 13.99 16.3233 13.4417 17 13.4417ZM17 18.6917C18.7325 18.6917 20.5583 19.5433 20.5583 19.9167V20.5583H13.4417V19.9167C13.4417 19.5433 15.2675 18.6917 17 18.6917ZM17 12.3333C15.7108 12.3333 14.6667 13.3775 14.6667 14.6667C14.6667 15.9558 15.7108 17 17 17C18.2892 17 19.3333 15.9558 19.3333 14.6667C19.3333 13.3775 18.2892 12.3333 17 12.3333ZM17 17.5833C15.4425 17.5833 12.3333 18.365 12.3333 19.9167V21.6667H21.6667V19.9167C21.6667 18.365 18.5575 17.5833 17 17.5833Z" fill="#3F50B5"/>
</g>
<mask id="path-4-inside-1_10_61" fill="white">
<path fill-rule="evenodd" clip-rule="evenodd" d="M19.9554 14C20.3074 13.0671 20.5 12.056 20.5 11C20.5 6.30558 16.6944 2.5 12 2.5C9.27959 2.5 6.85768 3.77798 5.30186 5.76633L4.23448 4.69895C6.06799 2.44207 8.86559 1 12 1C17.5228 1 22 5.47715 22 11C22 12.0452 21.8396 13.053 21.5422 14H19.9554ZM11 19.4418C6.78834 18.9482 3.51787 15.3757 3.50007 11.0356L3.46447 11H2C2 16.1853 5.94668 20.4489 11 20.9506V19.4418Z"/>
</mask>
<path d="M19.9554 14L19.0198 13.647C18.9039 13.9542 18.9462 14.2987 19.1329 14.5688C19.3197 14.8388 19.6271 15 19.9554 15V14ZM5.30186 5.76633L4.59475 6.47343C4.79722 6.6759 5.07675 6.78186 5.36254 6.76448C5.64834 6.74711 5.91298 6.60806 6.08942 6.38257L5.30186 5.76633ZM4.23448 4.69895L3.45834 4.0684C3.13523 4.46612 3.16504 5.04372 3.52738 5.40606L4.23448 4.69895ZM21.5422 14V15C21.9791 15 22.3653 14.7164 22.4962 14.2997L21.5422 14ZM3.50007 11.0356L4.50006 11.0315C4.49898 10.7677 4.39371 10.515 4.20718 10.3285L3.50007 11.0356ZM11 19.4418H12C12 18.9345 11.6202 18.5076 11.1164 18.4486L11 19.4418ZM3.46447 11L4.17157 10.2929C3.98404 10.1054 3.72968 10 3.46447 10V11ZM2 11V10C1.44772 10 1 10.4477 1 11H2ZM11 20.9506L10.9012 21.9457C11.1822 21.9736 11.4619 21.8814 11.6713 21.6918C11.8806 21.5023 12 21.233 12 20.9506H11ZM19.5 11C19.5 11.9336 19.3299 12.8252 19.0198 13.647L20.8911 14.353C21.2849 13.309 21.5 12.1785 21.5 11H19.5ZM12 3.5C16.1421 3.5 19.5 6.85786 19.5 11H21.5C21.5 5.75329 17.2467 1.5 12 1.5V3.5ZM6.08942 6.38257C7.46386 4.62602 9.60017 3.5 12 3.5V1.5C8.95902 1.5 6.25149 2.92994 4.5143 5.15009L6.08942 6.38257ZM3.52738 5.40606L4.59475 6.47343L6.00897 5.05922L4.94159 3.99184L3.52738 5.40606ZM12 0C8.55174 0 5.47358 1.58783 3.45834 4.0684L5.01063 5.3295C6.66241 3.29632 9.17944 2 12 2V0ZM23 11C23 4.92487 18.0751 0 12 0V2C16.9706 2 21 6.02944 21 11H23ZM22.4962 14.2997C22.8238 13.2568 23 12.148 23 11H21C21 11.9424 20.8555 12.8492 20.5881 13.7003L22.4962 14.2997ZM19.9554 15H21.5422V13H19.9554V15ZM2.50008 11.0397C2.51998 15.8912 6.17539 19.8832 10.8836 20.435L11.1164 18.4486C7.4013 18.0132 4.51577 14.8602 4.50006 11.0315L2.50008 11.0397ZM2.75736 11.7071L2.79297 11.7427L4.20718 10.3285L4.17157 10.2929L2.75736 11.7071ZM3.46447 10H2V12H3.46447V10ZM11.0988 19.9555C6.55188 19.5041 3 15.6662 3 11H1C1 16.7045 5.34148 21.3937 10.9012 21.9457L11.0988 19.9555ZM10 19.4418V20.9506H12V19.4418H10Z" fill="#3F50B5" mask="url(#path-4-inside-1_10_61)"/>
<path d="M2.94701 7.89426L2.83832 3L4.37315 5.46166L6.92177 6.08808L2.94701 7.89426Z" fill="#3F50B5" stroke="#3F50B5"/>
<defs>
<clipPath id="clip0_10_61">
<rect x="10" y="10" width="14" height="14" rx="7" fill="white"/>
</clipPath>
</defs>
</svg>
