<svg width="24" height="24" viewBox="0 0 24 24" fill="none" xmlns="http://www.w3.org/2000/svg">
<path d="M12 4V9.33333L14 12" stroke="#656565" stroke-width="1.5"/>
<g clip-path="url(#clip0_10_17)">
<path d="M17 13.4417C17.6767 13.4417 18.225 13.99 18.225 14.6667C18.225 15.3433 17.6767 15.8917 17 15.8917C16.3233 15.8917 15.775 15.3433 15.775 14.6667C15.775 13.99 16.3233 13.4417 17 13.4417ZM17 18.6917C18.7325 18.6917 20.5583 19.5433 20.5583 19.9167V20.5583H13.4417V19.9167C13.4417 19.5433 15.2675 18.6917 17 18.6917ZM17 12.3333C15.7108 12.3333 14.6667 13.3775 14.6667 14.6667C14.6667 15.9558 15.7108 17 17 17C18.2892 17 19.3333 15.9558 19.3333 14.6667C19.3333 13.3775 18.2892 12.3333 17 12.3333ZM17 17.5833C15.4425 17.5833 12.3333 18.365 12.3333 19.9167V21.6667H21.6667V19.9167C21.6667 18.365 18.5575 17.5833 17 17.5833Z" fill="#656565"/>
</g>
<mask id="path-4-inside-1_10_17" fill="white">
<path fill-rule="evenodd" clip-rule="evenodd" d="M19.9554 14C20.3074 13.0671 20.5 12.056 20.5 11C20.5 6.30558 16.6944 2.5 12 2.5C9.27959 2.5 6.85768 3.77798 5.30186 5.76633L4.23448 4.69895C6.06799 2.44207 8.86559 1 12 1C17.5228 1 22 5.47715 22 11C22 12.0452 21.8396 13.053 21.5422 14H19.9554ZM11 19.4418C6.78834 18.9482 3.51787 15.3757 3.50007 11.0356L3.46447 11H2C2 16.1853 5.94668 20.4489 11 20.9506V19.4418Z"/>
</mask>
<path d="M19.9554 14L18.0842 13.294C17.8524 13.9084 17.937 14.5974 18.3105 15.1375C18.6839 15.6776 19.2988 16 19.9554 16V14ZM5.30186 5.76633L3.88765 7.18054C4.29257 7.58546 4.85164 7.79739 5.42323 7.76264C5.99482 7.72789 6.52409 7.4498 6.87698 6.99881L5.30186 5.76633ZM4.23448 4.69895L2.68219 3.43785C2.03597 4.23328 2.09559 5.38849 2.82027 6.11316L4.23448 4.69895ZM21.5422 14V16C22.4159 16 23.1885 15.4329 23.4503 14.5993L21.5422 14ZM3.50007 11.0356L5.50006 11.0274C5.49789 10.4998 5.28735 9.99446 4.91429 9.62139L3.50007 11.0356ZM11 19.4418H13C13 18.4273 12.2404 17.5735 11.2328 17.4554L11 19.4418ZM3.46447 11L4.87868 9.58579C4.50361 9.21071 3.9949 9 3.46447 9V11ZM2 11V9C0.895431 9 0 9.89543 0 11H2ZM11 20.9506L10.8024 22.9408C11.3644 22.9966 11.9239 22.8122 12.3425 22.4331C12.7612 22.0539 13 21.5154 13 20.9506H11ZM18.5 11C18.5 11.8112 18.3523 12.5833 18.0842 13.294L21.8267 14.706C22.2625 13.5509 22.5 12.3009 22.5 11H18.5ZM12 4.5C15.5899 4.5 18.5 7.41015 18.5 11H22.5C22.5 5.20101 17.799 0.5 12 0.5V4.5ZM6.87698 6.99881C8.07005 5.47405 9.92074 4.5 12 4.5V0.5C8.63845 0.5 5.64531 2.08191 3.72674 4.53385L6.87698 6.99881ZM2.82027 6.11316L3.88765 7.18054L6.71608 4.35211L5.6487 3.28474L2.82027 6.11316ZM12 -1C8.23789 -1 4.87916 0.733583 2.68219 3.43785L5.78678 5.96005C7.25682 4.15057 9.49329 3 12 3V-1ZM24 11C24 4.37258 18.6274 -1 12 -1V3C16.4183 3 20 6.58172 20 11H24ZM23.4503 14.5993C23.808 13.4606 24 12.2508 24 11H20C20 11.8396 19.8713 12.6453 19.6341 13.4007L23.4503 14.5993ZM19.9554 16H21.5422V12H19.9554V16ZM1.50009 11.0438C1.52208 16.4067 5.56243 20.8182 10.7672 21.4282L11.2328 17.4554C8.01425 17.0782 5.51366 14.3447 5.50006 11.0274L1.50009 11.0438ZM2.05025 12.4142L2.08586 12.4498L4.91429 9.62139L4.87868 9.58579L2.05025 12.4142ZM3.46447 9H2V13H3.46447V9ZM11.1976 18.9604C7.15708 18.5592 4 15.1471 4 11H0C0 17.2236 4.73628 22.3386 10.8024 22.9408L11.1976 18.9604ZM9 19.4418V20.9506H13V19.4418H9Z" fill="#656565" mask="url(#path-4-inside-1_10_17)"/>
<path d="M2.94701 7.89426L2.83832 3L4.37315 5.46166L6.92177 6.08808L2.94701 7.89426Z" fill="#656565" stroke="#656565"/>
<defs>
<clipPath id="clip0_10_17">
<rect x="10" y="10" width="14" height="14" rx="7" fill="white"/>
</clipPath>
</defs>
</svg>
