<svg id="bold" height="512" viewBox="0 0 24 24" width="512" xmlns="http://www.w3.org/2000/svg"><path d="m12 10c-1.103 0-2-.897-2-2s.897-2 2-2 2 .897 2 2-.897 2-2 2z"/><path d="m15.25 16h-6.5c-.414 0-.75-.336-.75-.75v-.5c0-1.517 1.233-2.75 2.75-2.75h2.5c1.517 0 2.75 1.233 2.75 2.75v.5c0 .414-.336.75-.75.75z"/><path d="m12 24c-.088 0-.176-.012-.262-.035-.098-.027-9.738-2.754-9.738-12.04v-7.501c0-.415.256-.787.645-.935l9-3.424c.229-.087.482-.087.711 0l9 3.424c.388.148.644.52.644.935v7.501c0 9.287-9.64 12.014-9.738 12.04-.086.023-.174.035-.262.035zm-8-18.887v6.812c0 7.047 6.564 9.564 8 10.03 1.436-.466 8-2.983 8-10.03v-6.812l-8-3.043z"/></svg>