<svg id="Layer_1" enable-background="new 0 0 512 512" viewBox="0 0 512 512" xmlns="http://www.w3.org/2000/svg"><path clip-rule="evenodd" d="m467.949 174.077-27.846-10.719c-3.931-14.878-9.833-29.114-17.59-42.431l12.12-27.286c1.343-3.024.686-6.563-1.655-8.904l-36.645-36.643c-2.34-2.339-5.877-2.996-8.903-1.654l-27.296 12.123c-13.318-7.757-27.551-13.657-42.418-17.586l-10.721-27.854c-1.188-3.088-4.156-5.126-7.466-5.126h-51.82c-3.31 0-6.277 2.038-7.466 5.126l-10.722 27.854c-14.867 3.929-29.1 9.829-42.418 17.586l-27.294-12.123c-3.025-1.345-6.563-.686-8.904 1.654l-36.644 36.644c-2.34 2.341-2.997 5.88-1.654 8.904l12.122 27.292c-7.757 13.32-13.658 27.554-17.587 42.423l-27.852 10.72c-3.088 1.188-5.126 4.156-5.126 7.466v51.821c0 3.31 2.038 6.277 5.126 7.466l27.847 10.718c3.933 14.879 9.834 29.116 17.589 42.432l-12.119 27.285c-1.343 3.024-.686 6.563 1.655 8.904l18.849 18.848-35.955 20.817-4.077-7.204v-.001c-4.993-8.818-16.229-11.932-25.048-6.941l-19.779 11.192c-4.264 2.412-7.335 6.351-8.648 11.09s-.708 9.696 1.705 13.959l58.15 102.75c2.413 4.262 6.352 7.332 11.09 8.646 1.639.454 3.303.679 4.955.679 3.128 0 6.215-.805 9.003-2.384l19.778-11.193c4.264-2.412 7.335-6.351 8.648-11.09s.708-9.696-1.705-13.958l-5.144-9.089 9.832-5.677 89.593 24.007c5.137 1.377 10.246 2.061 15.273 2.061 10.17-.001 19.998-2.802 28.981-8.332l127.933-78.776c12.431-7.652 16.408-26.884 8.345-40.348-.995-1.661-2.776-4.159-5.561-6.558l12.499-12.499c2.34-2.341 2.997-5.88 1.654-8.904l-12.123-27.296c7.755-13.317 13.655-27.55 17.585-42.418l27.854-10.721c3.088-1.188 5.126-4.156 5.126-7.466v-51.82c0-3.31-2.038-6.278-5.126-7.466zm-330.434 300.986c-.1.358-.376 1.023-1.109 1.438l-19.78 11.194c-.731.413-1.443.311-1.803.21-.359-.1-1.024-.376-1.439-1.108l-58.15-102.749c-.415-.733-.31-1.445-.21-1.805.1-.358.376-1.023 1.109-1.438l19.779-11.194c.358-.203.755-.299 1.147-.299.837 0 1.663.435 2.096 1.198l58.15 102.75c.415.733.309 1.444.21 1.803zm271.794-99.116-127.933 78.776c-9.72 5.983-20.394 7.479-31.725 4.441l-92.794-24.864c-2.048-.55-4.233-.263-6.07.8l-12.583 7.265-33.168-58.606 51.06-29.563c11.405-6.603 23.712-12.146 36.402-8.032 4.258 1.381 9.184 3.162 14.887 5.224 16.42 5.937 36.817 13.312 58.051 17.209 6.415 2.305 10.001 8.486 8.373 14.564-1.731 6.463-6.566 9.279-14.361 8.394-10.279-2.119-20.083-4.916-30.454-7.878-4.957-1.416-10.082-2.88-15.357-4.293-4.266-1.14-8.653 1.39-9.798 5.657-1.144 4.268 1.39 8.654 5.657 9.798 5.148 1.379 10.21 2.825 15.104 4.223 10.795 3.083 20.99 5.994 32.002 8.245.05.01.1.014.15.023.056.01.11.026.167.036l8.771 1.427c13.528 2.163 25.535.051 36.717-6.461l70.496-41.061c19.073-11.108 34.173-12.573 39.413-3.826 3.539 5.913 1.995 15.423-3.007 18.502zm-132.162-19.26c2.504-1.352 4.205-3.999 4.205-7.043v-3.436c7.782-1.427 14.57-4.94 18.886-9.93 4.27-4.938 6.094-11.114 5.273-17.864-1.638-13.485-11.998-21.888-30.794-24.974-14.824-2.433-15.094-7.984-15.195-10.074-.382-7.872 8.134-10.207 9.846-10.595 1.215-.275 2.479-.438 3.759-.471.208.007.416.005.619-.007 5.816.035 11.801 2.736 14.578 9.352 1.712 4.075 6.405 5.989 10.473 4.279 4.074-1.71 5.99-6.399 4.279-10.473-4.421-10.529-12.846-16.207-21.724-18.245v-3.633c0-4.418-3.582-8-8-8s-8 3.582-8 8v3.705c-13.688 3.303-22.434 14.043-21.811 26.863.455 9.379 5.784 21.344 28.584 25.087 14.608 2.398 17.027 7.198 17.503 11.113.275 2.271-.185 3.957-1.492 5.469-2.517 2.909-8.136 4.958-13.983 5.097-.205.006-.41.003-.618.007-.08-.002-.162-.001-.241-.002-6.59-.084-14.562-2.927-16.53-10.821-1.068-4.287-5.412-6.891-9.698-5.827-4.287 1.069-6.896 5.411-5.827 9.698 2.835 11.367 12.063 19.559 24.114 22.112v3.568c0 .962.179 1.881.49 2.735-19.08-3.775-37.815-10.542-53.018-16.038-5.596-2.023-10.881-3.934-15.391-5.396-3.234-1.049-6.408-1.687-9.52-1.996-3.602-17.094-.45-34.976 9.285-52.07 10.114-17.757 26.096-38.221 50.124-64.19h52.593c24.027 25.969 40.01 46.433 50.124 64.189 15.96 28.025 13.921 58.697-5.371 82.322l-50.315 29.306c-2.154 1.254-4.334 2.273-6.562 3.062.578-1.348 1.07-2.771 1.471-4.267 3.159-11.786-2.02-23.99-12.116-30.612zm13.516-188.057h-34.086l-20.626-20.626c-2.502-2.501-2.502-6.572 0-9.073 2.116-2.118 5.486-2.479 8.017-.854 4.309 2.762 9.49 3.224 14.22 1.267 4.732-1.96 8.071-5.953 9.16-10.953.641-2.935 3.279-5.064 6.272-5.064 2.994 0 5.632 2.13 6.271 5.063 1.092 5.002 4.431 8.994 9.159 10.953s9.913 1.498 14.225-1.269c2.527-1.622 5.898-1.262 8.014.856 2.502 2.501 2.502 6.572 0 9.073zm-48.336 16h62.586c3.324 0 6.029 2.705 6.029 6.029s-2.705 6.028-6.029 6.028h-62.586c-3.324 0-6.029-2.705-6.029-6.029s2.705-6.028 6.029-6.028zm120.944 83.18c-9.824-16.964-24.428-36.022-45.481-59.293 5.539-4.005 9.153-10.515 9.153-17.857 0-9.635-6.221-17.841-14.856-20.824l10.517-10.517c4.222-4.223 6.548-9.853 6.548-15.851 0-5.999-2.326-11.629-6.549-15.852-7.202-7.2-18.539-8.59-27.269-3.438-2.527-9.813-11.529-16.852-21.715-16.852-10.18.002-19.178 7.034-21.713 16.853-8.723-5.152-20.066-3.765-27.27 3.438-4.222 4.223-6.548 9.853-6.548 15.852 0 5.998 2.326 11.628 6.549 15.851l10.517 10.517c-8.635 2.983-14.857 11.188-14.857 20.823 0 7.343 3.614 13.853 9.153 17.858-21.052 23.271-35.656 42.328-45.48 59.293-11.947-17.747-18.443-38.762-18.443-60.356 0-59.604 48.49-108.094 108.093-108.094s108.093 48.49 108.093 108.094c0 21.594-6.496 42.609-18.442 60.355zm93.804-39.94-26.601 10.239c-2.462.947-4.298 3.048-4.908 5.613-3.827 16.08-10.174 31.39-18.865 45.504-1.383 2.246-1.569 5.03-.499 7.441l11.579 26.07-13.189 13.188c-8.1-.919-18.812.768-32.771 7.745 6.885-18.837 6.696-39.394-.729-59.416 17.197-21.815 26.621-48.896 26.621-76.801 0-68.426-55.668-124.094-124.093-124.094s-124.093 55.668-124.093 124.094c0 27.894 9.416 54.965 26.603 76.778-5.653 15.196-7.123 30.741-4.314 45.914-8.589 2.048-16.543 6.038-23.738 10.205l-.638.369-17.981-17.98 11.575-26.061c1.07-2.411.884-5.195-.5-7.442-8.689-14.108-15.037-29.423-18.868-45.516-.61-2.566-2.447-4.666-4.908-5.613l-26.594-10.236v-40.835l26.599-10.238c2.462-.947 4.298-3.048 4.908-5.614 3.826-16.08 10.174-31.391 18.866-45.507 1.383-2.246 1.569-5.03.499-7.441l-11.577-26.067 28.875-28.875 26.07 11.578c2.409 1.07 5.195.885 7.441-.499 14.116-8.691 29.425-15.039 45.503-18.865 2.566-.61 4.667-2.446 5.614-4.908l10.24-26.602h40.834l10.239 26.602c.947 2.462 3.048 4.298 5.614 4.908 16.078 3.826 31.387 10.174 45.503 18.865 2.248 1.384 5.032 1.569 7.441.499l26.07-11.578 28.876 28.874-11.576 26.062c-1.071 2.411-.884 5.196.5 7.442 8.691 14.11 15.04 29.423 18.869 45.514.61 2.566 2.446 4.667 4.908 5.614l26.593 10.236v40.834zm-376.284 160.068c.564 3.859-2.107 7.445-5.966 8.009s-7.445-2.107-8.009-5.966 2.107-7.445 5.966-8.009c3.859-.565 7.445 2.106 8.009 5.966z" fill-rule="evenodd"/></svg>